HIERARCHY
ROOT Hips
{
    OFFSET 0.000000 0.000000 0.000000
    CHANNELS 6 Xposition Yposition Zposition Zrotation Xrotation Yrotation
    JOINT Spine
    {
        OFFSET -0.000000 8.834163 0.000000
        CHANNELS 3 Zrotation Xrotation Yrotation
        JOINT Spine1
        {
            OFFSET -0.000000 17.855492 0.000000
            CHANNELS 3 Zrotation Xrotation Yrotation
            JOINT Neck
            {
                OFFSET -0.000000 17.782162 1.616560
                CHANNELS 3 Zrotation Xrotation Yrotation
                JOINT Head
                {
                    OFFSET -0.000000 15.082717 -2.154674
                    CHANNELS 3 Zrotation Xrotation Yrotation
                    End Site
                    {
                        OFFSET -0.000000 26.933422 0.000000
                    }
                }
            }
            JOINT LeftShoulder
            {
                OFFSET 4.280775 15.989452 -0.632416
                CHANNELS 3 Zrotation Xrotation Yrotation
                JOINT LeftArm
                {
                    OFFSET 11.735877 0.000000 0.000000
                    CHANNELS 3 Zrotation Xrotation Yrotation
                    JOINT LeftForeArm
                    {
                        OFFSET 33.149986 0.000000 0.000000
                        CHANNELS 3 Zrotation Xrotation Yrotation
                        JOINT LeftHand
                        {
                            OFFSET 28.572401 0.000000 0.000000
                            CHANNELS 3 Zrotation Xrotation Yrotation
                            End Site
                            {
                                OFFSET 16.160055 0.000000 0.000000
                            }
                        }
                    }
                }
            }
            JOINT RightShoulder
            {
                OFFSET -4.290631 15.989452 -0.632416
                CHANNELS 3 Zrotation Xrotation Yrotation
                JOINT RightArm
                {
                    OFFSET -11.735877 0.000000 0.000000
                    CHANNELS 3 Zrotation Xrotation Yrotation
                    JOINT RightForeArm
                    {
                        OFFSET -33.149986 0.000000 0.000000
                        CHANNELS 3 Zrotation Xrotation Yrotation
                        JOINT RightHand
                        {
                            OFFSET -28.572401 0.000000 0.000000
                            CHANNELS 3 Zrotation Xrotation Yrotation
                            End Site
                            {
                                OFFSET -16.160055 0.000000 0.000000
                            }
                        }
                    }
                }
            }
        }
    }
    JOINT LeftUpLeg
    {
        OFFSET 10.773369 0.000000 0.000000
        CHANNELS 3 Zrotation Xrotation Yrotation
        JOINT LeftLeg
        {
            OFFSET -0.000000 -54.062664 0.000000
            CHANNELS 3 Zrotation Xrotation Yrotation
            JOINT LeftFoot
            {
                OFFSET -0.000000 -48.941059 0.000000
                CHANNELS 3 Zrotation Xrotation Yrotation
                JOINT LeftToeBase
                {
                    OFFSET -0.000000 -7.002690 16.160055
                    CHANNELS 3 Zrotation Xrotation Yrotation
                    End Site
                    {
                        OFFSET -0.000000 0.000000 4.309348
                    }
                }
            }
        }
    }
    JOINT RightUpLeg
    {
        OFFSET -10.773369 0.000000 0.000000
        CHANNELS 3 Zrotation Xrotation Yrotation
        JOINT RightLeg
        {
            OFFSET -0.000000 -54.062664 0.000000
            CHANNELS 3 Zrotation Xrotation Yrotation
            JOINT RightFoot
            {
                OFFSET -0.000000 -48.941059 0.000000
                CHANNELS 3 Zrotation Xrotation Yrotation
                JOINT RightToeBase
                {
                    OFFSET -0.000000 -7.002690 16.160055
                    CHANNELS 3 Zrotation Xrotation Yrotation
                    End Site
                    {
                        OFFSET -0.000000 0.000000 4.309348
                    }
                }
            }
        }
    }
}
MOTION
Frames:    12
Frame Time:    0.008333
24.947273    101.744888    5.743551    -6.420487    0.122447    -103.392151    -5.437934    -32.607235    -2.068765    19.775888    21.685276    -4.301670    -1.980105    35.881962    -0.243625    -12.983219    -15.719228    -4.234431    -1.281284    0.465310    6.106031    -16.745928    20.083534    -35.228275    -13.635970    -32.648884    -47.125946    1.814535    -37.604904    -5.277235    -12.380066    3.240362    15.703180    27.536940    -19.137579    26.390850    -17.059483    -21.676146    65.272865    0.727386    -11.122649    -3.358765    19.848154    -5.686586    28.875597    -10.917290    37.742435    3.381319    1.896198    -25.053541    16.019135    0.000000    0.000000    0.000000    -6.025502    -6.606508    18.189440    9.360201    41.288105    9.365345    -6.513408    -36.962978    -23.309761    0.000000    0.000000    0.000000    
25.153032    101.987389    5.576179    -8.006329    -0.258652    -102.056061    -3.922813    -31.750284    -1.593856    17.185482    21.265007    -3.727869    -3.413133    36.043400    2.102941    -13.490755    -12.312373    -1.836925    -1.509566    -0.428768    7.678480    -11.826103    23.098043    -39.732628    -15.861376    -34.160240    -44.919949    0.715400    -39.469593    -5.004284    -12.942483    3.869043    18.040764    29.103819    -20.677965    26.549431    -15.476479    -20.800369    62.839302    0.742602    -11.663956    -0.980826    19.029774    -4.467519    28.338291    -10.591889    37.063789    2.179193    0.892188    -24.823061    14.404221    0.000000    0.000000    0.000000    -6.806430    -5.089880    18.365528    10.815800    41.346264    10.193489    -8.480509    -36.133087    -26.653074    0.000000    0.000000    0.000000    
25.240635    102.364822    5.353202    -10.001069    -0.381507    -100.475464    -2.581336    -30.599813    -1.028358    14.854239    20.953730    -3.083982    -4.566879    36.446190    3.892897    -13.286831    -9.784944    0.111332    -1.421786    -1.272167    8.821668    -5.422389    27.399742    -45.243500    -16.410755    -36.962898    -43.472301    -0.571787    -42.033447    -3.623816    -13.511239    4.652692    19.169691    30.871590    -21.501024    27.101467    -14.408503    -20.337372    59.668701    1.138735    -12.341912    1.837702    18.467857    -2.909019    27.740652    -10.185852    36.900261    1.478534    -1.338565    -24.637369    12.171515    0.000000    0.000000    0.000000    -7.312294    -2.721605    18.931026    12.438617    40.791065    10.704180    -10.240366    -35.037266    -30.098333    0.000000    0.000000    0.000000    
25.405479    102.818871    5.206230    -11.625080    -0.721389    -98.547531    -1.510538    -29.955412    -0.692577    12.351458    20.821352    -2.566304    -5.988881    36.760704    5.680400    -12.205695    -7.693538    2.126078    -0.982472    -1.898273    9.483399    -0.264575    29.566904    -50.301640    -16.470003    -38.768749    -41.419434    -2.544642    -43.447662    -2.758360    -13.428901    4.819278    20.737812    32.174198    -22.338722    26.777636    -13.551006    -19.852705    56.173397    1.991788    -12.798622    4.640982    17.780357    -2.058903    26.693682    -10.068795    37.289387    1.643366    -3.801233    -24.199991    10.796894    0.000000    0.000000    0.000000    -7.683235    -0.552465    18.661280    12.976330    40.062374    10.720138    -10.650313    -34.157646    -31.774309    0.000000    0.000000    0.000000    
25.511560    103.294029    4.957362    -13.266015    -0.839152    -96.423630    -0.702660    -29.657446    -0.466211    10.239058    21.509848    -2.230362    -7.165562    36.641903    7.180035    -10.899519    -6.221648    3.864331    0.078568    -2.532223    10.071863    3.790350    30.440239    -55.279007    -13.717440    -39.301418    -37.910744    -7.744746    -42.741035    -2.590046    -13.465570    4.736885    21.361410    33.762325    -23.027594    26.999157    -12.277038    -19.132889    52.742756    1.428958    -13.182488    6.598574    17.561287    -1.261669    25.447184    -10.386722    38.296085    2.849580    -5.542604    -23.652475    10.008986    0.000000    0.000000    0.000000    -7.455143    1.944300    18.206303    12.932378    39.073265    10.303036    -10.710376    -33.321049    -32.756161    0.000000    0.000000    0.000000    
25.549805    103.851028    4.726519    -15.038375    -0.961353    -94.006714    -0.374908    -29.507996    -0.341512    8.695176    22.404669    -1.968210    -7.553441    36.830929    8.174943    -10.303417    -5.243817    5.009109    1.380613    -2.890250    9.935680    5.524361    30.171188    -59.040180    -8.042757    -37.562840    -32.995415    -15.073560    -39.120911    -3.015990    -13.534740    4.739844    21.336853    35.237530    -23.164574    27.351421    -11.161263    -18.881517    49.430935    0.032269    -13.934519    6.399167    17.509558    -0.363089    23.292906    -11.472955    39.538105    4.596286    -5.452809    -23.328543    10.456170    0.000000    0.000000    0.000000    -6.822602    4.835989    16.769318    11.614381    37.854836    9.072536    -9.380276    -32.671116    -31.562651    0.000000    0.000000    0.000000    
25.646540    104.332924    4.504718    -16.372660    -1.141423    -91.621284    -0.089787    -29.767128    -0.255299    7.068113    23.501598    -1.703589    -7.806558    36.640198    9.096425    -9.827138    -4.426457    6.091804    2.807232    -3.532854    10.009620    7.365635    30.226398    -62.532909    -2.155342    -35.119499    -29.104382    -19.937326    -35.051273    -3.654122    -13.535804    4.576672    21.261950    36.487144    -22.785904    27.482321    -10.562875    -18.864527    46.545662    -2.055264    -14.579300    4.619098    17.511652    -0.078678    21.703388    -12.043042    41.506962    5.853886    -5.040924    -22.871939    11.031466    0.000000    0.000000    0.000000    -5.940211    7.233894    15.346582    10.141098    36.567192    6.628697    -7.407797    -32.197987    -29.120430    0.000000    0.000000    0.000000    
25.825954    104.741776    4.246181    -17.339909    -1.269044    -89.307823    -0.281349    -30.151258    -0.202727    6.375769    24.351475    -1.504207    -8.276420    36.337746    9.863196    -9.351644    -3.677955    6.967466    3.876076    -4.453246    9.946933    10.231142    31.027855    -66.189491    2.849134    -33.794346    -26.891344    -20.900757    -32.721935    -3.256329    -13.945015    4.785281    20.707565    37.901802    -22.371243    27.757006    -10.946858    -18.876459    44.236401    -2.600909    -14.639651    1.725376    17.723141    -0.239790    20.477043    -12.558152    43.942513    6.824157    -4.780441    -22.811399    11.750645    0.000000    0.000000    0.000000    -4.699421    9.092924    13.851492    8.437515    35.490993    4.355970    -5.554702    -31.638386    -26.874460    0.000000    0.000000    0.000000    
25.999880    105.143524    4.004707    -18.259941    -1.433061    -86.949570    -0.484966    -30.553043    -0.423086    5.516292    25.125477    -1.520839    -8.062776    36.491573    10.769273    -10.256996    -3.381764    7.812166    4.905766    -5.434700    10.273314    12.077167    31.647711    -69.141663    6.123389    -34.125843    -25.768459    -19.133461    -32.674881    -1.991131    -14.239212    4.986224    21.064777    38.576973    -21.947113    27.473322    -11.705414    -18.705961    41.728695    -2.127157    -14.389832    -1.310913    17.866121    -0.557165    19.564920    -12.505603    46.710564    7.865737    -4.614608    -22.642452    11.471266    0.000000    0.000000    0.000000    -3.436460    10.808590    12.349601    7.016302    34.439812    2.019557    -3.850260    -30.814589    -24.881826    0.000000    0.000000    0.000000    
26.209360    105.495384    3.727860    -18.973879    -1.305620    -84.548637    -0.638971    -30.867292    -0.515493    5.092081    25.368410    -1.486029    -9.017770    36.699833    11.827498    -9.584493    -3.336532    8.818822    5.644258    -6.044509    10.275666    13.247865    31.960812    -71.579681    7.817063    -36.127262    -25.823292    -14.198248    -34.651161    -0.123934    -14.594538    5.441885    21.071003    39.222237    -21.937521    27.063263    -12.773501    -17.825880    39.069782    0.609853    -13.459497    -3.353935    18.409348    -1.140730    18.447947    -12.777453    49.747906    8.629839    -4.677144    -22.795504    11.397359    0.000000    0.000000    0.000000    -1.848215    12.141546    11.508120    6.385696    33.412273    -0.508819    -2.829387    -29.778877    -23.980211    0.000000    0.000000    0.000000    
26.439678    105.788124    3.484844    -19.690039    -1.007838    -82.238586    -0.283665    -30.867632    -0.465855    4.285162    25.154072    -1.344252    -8.907063    37.220699    12.659057    -10.301667    -3.390710    9.532899    6.364504    -6.462876    10.623917    12.008722    31.659575    -73.111351    8.795293    -37.813004    -26.382608    -8.647141    -36.280384    1.927678    -15.075315    6.444067    20.990215    39.978428    -22.112965    27.043612    -14.637856    -16.557188    36.385670    5.728875    -12.109550    -4.955332    19.144087    -1.756960    17.388668    -12.999782    52.937565    8.728664    -3.571815    -23.098490    11.891413    0.000000    0.000000    0.000000    -0.322450    13.240624    10.902647    6.497498    32.546597    -2.295068    -2.492480    -28.704773    -24.324188    0.000000    0.000000    0.000000    
26.682579    106.060898    3.258575    -20.364445    -0.564178    -79.888184    0.228031    -30.847067    -0.338632    3.658555    24.760958    -1.205193    -8.776355    37.431271    13.374606    -11.163692    -2.958058    10.183002    6.712040    -6.719598    10.940131    8.688603    30.642643    -73.718147    8.199953    -38.969166    -27.903862    -3.294151    -37.444302    3.494720    -15.598474    7.247603    20.936146    40.112740    -21.053652    26.082369    -16.923365    -15.952864    34.181679    11.519051    -11.473622    -6.271724    20.012285    -2.452381    16.157923    -13.338938    56.042870    9.627954    -3.688518    -23.391479    11.126718    0.000000    0.000000    0.000000    1.336628    14.057326    10.071659    6.648418    31.903397    -3.703277    -2.178772    -27.487804    -24.794842    0.000000    0.000000    0.000000    
